<svg xmlns="http://www.w3.org/2000/svg" xmlns:xlink="http://www.w3.org/1999/xlink" width="500" zoomAndPan="magnify" viewBox="0 0 375 374.999991" height="500" preserveAspectRatio="xMidYMid meet" version="1.0"><defs><g/><clipPath id="f95b4d0e84"><path d="M 0.199219 151 L 240.441406 151 L 240.441406 228.71875 L 0.199219 228.71875 Z M 0.199219 151 " clip-rule="nonzero"/></clipPath><clipPath id="0e97fb5838"><rect x="0" width="241" y="0" height="78"/></clipPath><clipPath id="cc5a1f01b3"><path d="M 109.066406 52.507812 L 126.277344 52.507812 L 126.277344 99.160156 L 109.066406 99.160156 Z M 109.066406 52.507812 " clip-rule="nonzero"/></clipPath><clipPath id="bd99ab6e46"><path d="M 117.671875 52.507812 C 119.953125 52.507812 122.144531 53.414062 123.757812 55.027344 C 125.371094 56.640625 126.277344 58.828125 126.277344 61.113281 L 126.277344 90.507812 C 126.277344 92.792969 125.371094 94.980469 123.757812 96.59375 C 122.144531 98.207031 119.953125 99.113281 117.671875 99.113281 C 115.390625 99.113281 113.203125 98.207031 111.585938 96.59375 C 109.972656 94.980469 109.066406 92.792969 109.066406 90.507812 L 109.066406 61.113281 C 109.066406 58.828125 109.972656 56.640625 111.585938 55.027344 C 113.203125 53.414062 115.390625 52.507812 117.671875 52.507812 Z M 117.671875 52.507812 " clip-rule="nonzero"/></clipPath><clipPath id="d84ccd05f2"><path d="M 0.0664062 0.507812 L 17.277344 0.507812 L 17.277344 47.121094 L 0.0664062 47.121094 Z M 0.0664062 0.507812 " clip-rule="nonzero"/></clipPath><clipPath id="e956601629"><path d="M 8.671875 0.507812 C 10.953125 0.507812 13.144531 1.414062 14.757812 3.027344 C 16.371094 4.640625 17.277344 6.828125 17.277344 9.113281 L 17.277344 38.507812 C 17.277344 40.792969 16.371094 42.980469 14.757812 44.59375 C 13.144531 46.207031 10.953125 47.113281 8.671875 47.113281 C 6.390625 47.113281 4.203125 46.207031 2.585938 44.59375 C 0.972656 42.980469 0.0664062 40.792969 0.0664062 38.507812 L 0.0664062 9.113281 C 0.0664062 6.828125 0.972656 4.640625 2.585938 3.027344 C 4.203125 1.414062 6.390625 0.507812 8.671875 0.507812 Z M 8.671875 0.507812 " clip-rule="nonzero"/></clipPath><clipPath id="ca5541a63f"><rect x="0" width="18" y="0" height="48"/></clipPath><clipPath id="9117644ec3"><path d="M 138.964844 53.191406 L 156.175781 53.191406 L 156.175781 99.171875 L 138.964844 99.171875 Z M 138.964844 53.191406 " clip-rule="nonzero"/></clipPath><clipPath id="849a5f6950"><path d="M 147.570312 53.191406 C 149.851562 53.191406 152.042969 54.097656 153.65625 55.710938 C 155.269531 57.324219 156.175781 59.515625 156.175781 61.796875 L 156.175781 90.507812 C 156.175781 92.792969 155.269531 94.980469 153.65625 96.59375 C 152.042969 98.207031 149.851562 99.113281 147.570312 99.113281 C 145.289062 99.113281 143.101562 98.207031 141.488281 96.59375 C 139.871094 94.980469 138.964844 92.792969 138.964844 90.507812 L 138.964844 61.796875 C 138.964844 59.515625 139.871094 57.324219 141.488281 55.710938 C 143.101562 54.097656 145.289062 53.191406 147.570312 53.191406 Z M 147.570312 53.191406 " clip-rule="nonzero"/></clipPath><clipPath id="efa67c1ae2"><path d="M 0.964844 0.191406 L 18.175781 0.191406 L 18.175781 46.121094 L 0.964844 46.121094 Z M 0.964844 0.191406 " clip-rule="nonzero"/></clipPath><clipPath id="60b958f7cf"><path d="M 9.570312 0.191406 C 11.851562 0.191406 14.042969 1.097656 15.65625 2.710938 C 17.269531 4.324219 18.175781 6.515625 18.175781 8.796875 L 18.175781 37.507812 C 18.175781 39.792969 17.269531 41.980469 15.65625 43.59375 C 14.042969 45.207031 11.851562 46.113281 9.570312 46.113281 C 7.289062 46.113281 5.101562 45.207031 3.488281 43.59375 C 1.871094 41.980469 0.964844 39.792969 0.964844 37.507812 L 0.964844 8.796875 C 0.964844 6.515625 1.871094 4.324219 3.488281 2.710938 C 5.101562 1.097656 7.289062 0.191406 9.570312 0.191406 Z M 9.570312 0.191406 " clip-rule="nonzero"/></clipPath><clipPath id="58b72f8efc"><rect x="0" width="19" y="0" height="47"/></clipPath><clipPath id="16f5e545ea"><path d="M 109 53 L 157 53 L 157 101 L 109 101 Z M 109 53 " clip-rule="nonzero"/></clipPath><clipPath id="5425577726"><path d="M 147.664062 49.535156 L 159.835938 61.703125 L 117.859375 103.675781 L 105.691406 91.507812 Z M 147.664062 49.535156 " clip-rule="nonzero"/></clipPath><clipPath id="e36d05814e"><path d="M 153.75 55.617188 C 155.363281 57.234375 156.269531 59.421875 156.269531 61.703125 C 156.269531 63.984375 155.363281 66.175781 153.75 67.789062 L 123.972656 97.5625 C 122.359375 99.175781 120.171875 100.082031 117.890625 100.082031 C 115.609375 100.082031 113.417969 99.175781 111.804688 97.5625 C 110.191406 95.949219 109.285156 93.761719 109.285156 91.480469 C 109.285156 89.195312 110.191406 87.007812 111.804688 85.394531 L 141.582031 55.617188 C 143.195312 54.003906 145.382812 53.097656 147.664062 53.097656 C 149.949219 53.097656 152.136719 54.003906 153.75 55.617188 Z M 153.75 55.617188 " clip-rule="nonzero"/></clipPath><clipPath id="6e93ad94e6"><path d="M 0.160156 0.0390625 L 47.441406 0.0390625 L 47.441406 47.320312 L 0.160156 47.320312 Z M 0.160156 0.0390625 " clip-rule="nonzero"/></clipPath><clipPath id="ef31791a2c"><path d="M 38.664062 -3.464844 L 50.835938 8.703125 L 8.859375 50.675781 L -3.308594 38.507812 Z M 38.664062 -3.464844 " clip-rule="nonzero"/></clipPath><clipPath id="6b4c58cb27"><path d="M 44.75 2.617188 C 46.363281 4.234375 47.269531 6.421875 47.269531 8.703125 C 47.269531 10.984375 46.363281 13.175781 44.75 14.789062 L 14.972656 44.5625 C 13.359375 46.175781 11.171875 47.082031 8.890625 47.082031 C 6.609375 47.082031 4.417969 46.175781 2.804688 44.5625 C 1.191406 42.949219 0.285156 40.761719 0.285156 38.480469 C 0.285156 36.195312 1.191406 34.007812 2.804688 32.394531 L 32.582031 2.617188 C 34.195312 1.003906 36.382812 0.0976562 38.664062 0.0976562 C 40.949219 0.0976562 43.136719 1.003906 44.75 2.617188 Z M 44.75 2.617188 " clip-rule="nonzero"/></clipPath><clipPath id="ccf550c719"><rect x="0" width="48" y="0" height="48"/></clipPath><clipPath id="7294662add"><path d="M 139 82 L 157 82 L 157 101 L 139 101 Z M 139 82 " clip-rule="nonzero"/></clipPath><clipPath id="d045d1a142"><path d="M 147.667969 79.304688 L 159.839844 91.476562 L 147.621094 103.691406 L 135.453125 91.523438 Z M 147.667969 79.304688 " clip-rule="nonzero"/></clipPath><clipPath id="c697788ac0"><path d="M 153.753906 85.390625 C 155.367188 87.003906 156.273438 89.191406 156.273438 91.476562 C 156.273438 93.757812 155.367188 95.945312 153.753906 97.558594 L 153.75 97.566406 C 152.136719 99.179688 149.945312 100.085938 147.664062 100.085938 C 145.382812 100.085938 143.191406 99.179688 141.578125 97.566406 C 139.964844 95.953125 139.058594 93.761719 139.058594 91.480469 C 139.058594 89.199219 139.964844 87.007812 141.578125 85.394531 L 141.585938 85.390625 C 143.199219 83.777344 145.386719 82.871094 147.667969 82.871094 C 149.953125 82.871094 152.140625 83.777344 153.753906 85.390625 Z M 153.753906 85.390625 " clip-rule="nonzero"/></clipPath><clipPath id="0087f5f3b4"><path d="M 0 0.800781 L 17.441406 0.800781 L 17.441406 18.320312 L 0 18.320312 Z M 0 0.800781 " clip-rule="nonzero"/></clipPath><clipPath id="b231cab75a"><path d="M 8.667969 -2.695312 L 20.839844 9.476562 L 8.621094 21.691406 L -3.546875 9.523438 Z M 8.667969 -2.695312 " clip-rule="nonzero"/></clipPath><clipPath id="4b22e9e99a"><path d="M 14.753906 3.390625 C 16.367188 5.003906 17.273438 7.191406 17.273438 9.476562 C 17.273438 11.757812 16.367188 13.945312 14.753906 15.558594 L 14.75 15.566406 C 13.136719 17.179688 10.945312 18.085938 8.664062 18.085938 C 6.382812 18.085938 4.191406 17.179688 2.578125 15.566406 C 0.964844 13.953125 0.0585938 11.761719 0.0585938 9.480469 C 0.0585938 7.199219 0.964844 5.007812 2.578125 3.394531 L 2.585938 3.390625 C 4.199219 1.777344 6.386719 0.871094 8.667969 0.871094 C 10.953125 0.871094 13.140625 1.777344 14.753906 3.390625 Z M 14.753906 3.390625 " clip-rule="nonzero"/></clipPath><clipPath id="2ce336bfaa"><rect x="0" width="18" y="0" height="19"/></clipPath><clipPath id="54dfabf006"><path d="M 78 51 L 127 51 L 127 101 L 78 101 Z M 78 51 " clip-rule="nonzero"/></clipPath><clipPath id="49c948cf3c"><path d="M 117.667969 48.394531 L 129.835938 60.5625 L 86.722656 103.679688 L 74.550781 91.507812 Z M 117.667969 48.394531 " clip-rule="nonzero"/></clipPath><clipPath id="d7a4727af7"><path d="M 123.75 54.476562 C 125.367188 56.09375 126.273438 58.28125 126.273438 60.5625 C 126.273438 62.84375 125.367188 65.035156 123.75 66.648438 L 92.835938 97.5625 C 91.222656 99.175781 89.03125 100.085938 86.75 100.085938 C 84.46875 100.085938 82.28125 99.175781 80.667969 97.5625 C 79.050781 95.949219 78.144531 93.761719 78.144531 91.480469 C 78.144531 89.195312 79.050781 87.007812 80.667969 85.394531 L 111.582031 54.476562 C 113.195312 52.863281 115.386719 51.957031 117.667969 51.957031 C 119.949219 51.957031 122.136719 52.863281 123.75 54.476562 Z M 123.75 54.476562 " clip-rule="nonzero"/></clipPath><clipPath id="ec33673d52"><path d="M 0 0.839844 L 48.441406 0.839844 L 48.441406 49.320312 L 0 49.320312 Z M 0 0.839844 " clip-rule="nonzero"/></clipPath><clipPath id="e83a6f2c01"><path d="M 39.667969 -2.605469 L 51.835938 9.5625 L 8.722656 52.679688 L -3.449219 40.507812 Z M 39.667969 -2.605469 " clip-rule="nonzero"/></clipPath><clipPath id="a7fd1834d4"><path d="M 45.75 3.476562 C 47.367188 5.09375 48.273438 7.28125 48.273438 9.5625 C 48.273438 11.84375 47.367188 14.035156 45.75 15.648438 L 14.835938 46.5625 C 13.222656 48.175781 11.03125 49.085938 8.75 49.085938 C 6.46875 49.085938 4.28125 48.175781 2.667969 46.5625 C 1.050781 44.949219 0.144531 42.761719 0.144531 40.480469 C 0.144531 38.195312 1.050781 36.007812 2.667969 34.394531 L 33.582031 3.476562 C 35.195312 1.863281 37.386719 0.957031 39.667969 0.957031 C 41.949219 0.957031 44.136719 1.863281 45.75 3.476562 Z M 45.75 3.476562 " clip-rule="nonzero"/></clipPath><clipPath id="aac7c68cce"><rect x="0" width="49" y="0" height="50"/></clipPath><clipPath id="6f8b9b517c"><rect x="0" width="241" y="0" height="229"/></clipPath></defs><g transform="matrix(1, 0, 0, 1, 67, 78)"><g clip-path="url(#6f8b9b517c)"><g clip-path="url(#f95b4d0e84)"><g transform="matrix(1, 0, 0, 1, 0, 151)"><g clip-path="url(#0e97fb5838)"><g fill="#5ce1e6" fill-opacity="1"><g transform="translate(0.902649, 55.806124)"><g><path d="M 15.984375 0.578125 C 13.597656 0.578125 11.457031 0.0625 9.5625 -0.96875 C 7.664062 -2 6.160156 -3.488281 5.046875 -5.4375 C 3.929688 -7.382812 3.375 -9.722656 3.375 -12.453125 L 3.375 -35.25 L 7.828125 -35.25 L 7.828125 -20.234375 L 7.921875 -20.234375 C 8.460938 -21.222656 9.175781 -22.085938 10.0625 -22.828125 C 10.945312 -23.578125 11.960938 -24.160156 13.109375 -24.578125 C 14.253906 -24.992188 15.453125 -25.203125 16.703125 -25.203125 C 18.992188 -25.203125 21.039062 -24.6875 22.84375 -23.65625 C 24.644531 -22.625 26.066406 -21.164062 27.109375 -19.28125 C 28.148438 -17.40625 28.671875 -15.175781 28.671875 -12.59375 C 28.671875 -10.570312 28.359375 -8.75 27.734375 -7.125 C 27.109375 -5.5 26.234375 -4.101562 25.109375 -2.9375 C 23.984375 -1.78125 22.644531 -0.90625 21.09375 -0.3125 C 19.550781 0.28125 17.847656 0.578125 15.984375 0.578125 Z M 15.984375 -3.234375 C 17.492188 -3.234375 18.867188 -3.601562 20.109375 -4.34375 C 21.347656 -5.082031 22.335938 -6.128906 23.078125 -7.484375 C 23.816406 -8.835938 24.1875 -10.445312 24.1875 -12.3125 C 24.1875 -14.113281 23.820312 -15.691406 23.09375 -17.046875 C 22.375 -18.398438 21.398438 -19.460938 20.171875 -20.234375 C 18.953125 -21.003906 17.570312 -21.390625 16.03125 -21.390625 C 14.519531 -21.390625 13.144531 -21.019531 11.90625 -20.28125 C 10.664062 -19.539062 9.679688 -18.484375 8.953125 -17.109375 C 8.234375 -15.742188 7.875 -14.128906 7.875 -12.265625 C 7.875 -10.429688 8.234375 -8.835938 8.953125 -7.484375 C 9.679688 -6.128906 10.664062 -5.082031 11.90625 -4.34375 C 13.144531 -3.601562 14.503906 -3.234375 15.984375 -3.234375 Z M 15.984375 -3.234375 "/></g></g></g><g fill="#5ce1e6" fill-opacity="1"><g transform="translate(31.754327, 55.806124)"><g><path d="M 3.53125 0 L 3.53125 -35.25 L 7.96875 -35.25 L 7.96875 0 Z M 3.53125 0 "/></g></g></g><g fill="#5ce1e6" fill-opacity="1"><g transform="translate(43.245248, 55.806124)"><g><path d="M 15.109375 0.578125 C 12.597656 0.578125 10.375 0.0078125 8.4375 -1.125 C 6.507812 -2.269531 4.984375 -3.816406 3.859375 -5.765625 C 2.734375 -7.710938 2.171875 -9.894531 2.171875 -12.3125 C 2.171875 -14.726562 2.734375 -16.910156 3.859375 -18.859375 C 4.984375 -20.804688 6.507812 -22.347656 8.4375 -23.484375 C 10.375 -24.628906 12.597656 -25.203125 15.109375 -25.203125 C 17.617188 -25.203125 19.847656 -24.628906 21.796875 -23.484375 C 23.742188 -22.347656 25.269531 -20.8125 26.375 -18.875 C 27.488281 -16.945312 28.046875 -14.757812 28.046875 -12.3125 C 28.046875 -9.894531 27.488281 -7.710938 26.375 -5.765625 C 25.269531 -3.816406 23.742188 -2.269531 21.796875 -1.125 C 19.847656 0.0078125 17.617188 0.578125 15.109375 0.578125 Z M 15.109375 -3.234375 C 16.816406 -3.234375 18.296875 -3.632812 19.546875 -4.4375 C 20.804688 -5.25 21.789062 -6.335938 22.5 -7.703125 C 23.207031 -9.066406 23.5625 -10.601562 23.5625 -12.3125 C 23.5625 -14.019531 23.207031 -15.554688 22.5 -16.921875 C 21.789062 -18.285156 20.804688 -19.367188 19.546875 -20.171875 C 18.296875 -20.984375 16.816406 -21.390625 15.109375 -21.390625 C 13.429688 -21.390625 11.957031 -20.984375 10.6875 -20.171875 C 9.414062 -19.367188 8.425781 -18.285156 7.71875 -16.921875 C 7.007812 -15.554688 6.65625 -14.019531 6.65625 -12.3125 C 6.65625 -10.601562 7.007812 -9.066406 7.71875 -7.703125 C 8.425781 -6.335938 9.414062 -5.25 10.6875 -4.4375 C 11.957031 -3.632812 13.429688 -3.234375 15.109375 -3.234375 Z M 15.109375 -3.234375 "/></g></g></g><g fill="#5ce1e6" fill-opacity="1"><g transform="translate(73.469275, 55.806124)"><g><path d="M 15.453125 0 C 12.910156 0 10.640625 -0.546875 8.640625 -1.640625 C 6.648438 -2.734375 5.070312 -4.203125 3.90625 -6.046875 C 2.75 -7.898438 2.171875 -9.988281 2.171875 -12.3125 C 2.171875 -14.625 2.75 -16.707031 3.90625 -18.5625 C 5.070312 -20.414062 6.648438 -21.890625 8.640625 -22.984375 C 10.640625 -24.078125 12.910156 -24.625 15.453125 -24.625 L 18.34375 -24.625 L 18.34375 -20.8125 L 15.3125 -20.8125 C 13.664062 -20.8125 12.191406 -20.429688 10.890625 -19.671875 C 9.585938 -18.921875 8.554688 -17.898438 7.796875 -16.609375 C 7.035156 -15.316406 6.65625 -13.882812 6.65625 -12.3125 C 6.65625 -10.738281 7.035156 -9.304688 7.796875 -8.015625 C 8.554688 -6.722656 9.585938 -5.695312 10.890625 -4.9375 C 12.191406 -4.1875 13.664062 -3.8125 15.3125 -3.8125 L 18.34375 -3.8125 L 18.34375 0 Z M 15.453125 0 "/></g></g></g><g fill="#5ce1e6" fill-opacity="1"><g transform="translate(93.361131, 55.806124)"><g><path d="M 3.53125 0 L 3.53125 -35.25 L 7.96875 -35.25 L 7.96875 -14.296875 L 14.71875 -14.296875 L 21.203125 -24.625 L 26.125 -24.625 L 19.125 -13.609375 C 21.4375 -12.929688 23.242188 -11.664062 24.546875 -9.8125 C 25.847656 -7.96875 26.5 -5.820312 26.5 -3.375 L 26.5 0 L 22.015625 0 L 22.015625 -3.375 C 22.015625 -4.726562 21.71875 -5.9375 21.125 -7 C 20.53125 -8.0625 19.703125 -8.90625 18.640625 -9.53125 C 17.578125 -10.164062 16.351562 -10.484375 14.96875 -10.484375 L 7.96875 -10.484375 L 7.96875 0 Z M 3.53125 0 "/></g></g></g><g fill="#5ce1e6" fill-opacity="1"><g transform="translate(122.672172, 55.806124)"><g><path d="M 26.75 0.578125 C 24.78125 0.578125 22.984375 0.144531 21.359375 -0.71875 C 19.734375 -1.59375 18.445312 -2.800781 17.5 -4.34375 C 16.550781 -5.882812 16.078125 -7.71875 16.078125 -9.84375 L 16.078125 -24.578125 C 16.078125 -25.085938 15.945312 -25.550781 15.6875 -25.96875 C 15.4375 -26.394531 15.097656 -26.734375 14.671875 -26.984375 C 14.253906 -27.242188 13.789062 -27.375 13.28125 -27.375 C 12.757812 -27.375 12.289062 -27.242188 11.875 -26.984375 C 11.457031 -26.734375 11.128906 -26.394531 10.890625 -25.96875 C 10.648438 -25.550781 10.53125 -25.085938 10.53125 -24.578125 L 10.53125 0 L 2.609375 0 L 2.609375 -24 C 2.609375 -26.019531 3.066406 -27.800781 3.984375 -29.34375 C 4.898438 -30.894531 6.171875 -32.117188 7.796875 -33.015625 C 9.421875 -33.921875 11.25 -34.375 13.28125 -34.375 C 15.34375 -34.375 17.175781 -33.921875 18.78125 -33.015625 C 20.394531 -32.117188 21.664062 -30.894531 22.59375 -29.34375 C 23.53125 -27.800781 24 -26.019531 24 -24 L 24 -9.265625 C 24 -8.722656 24.125 -8.238281 24.375 -7.8125 C 24.632812 -7.394531 24.960938 -7.066406 25.359375 -6.828125 C 25.765625 -6.585938 26.210938 -6.46875 26.703125 -6.46875 C 27.210938 -6.46875 27.6875 -6.585938 28.125 -6.828125 C 28.5625 -7.066406 28.90625 -7.394531 29.15625 -7.8125 C 29.414062 -8.238281 29.546875 -8.722656 29.546875 -9.265625 L 29.546875 -24 C 29.546875 -26.019531 30.007812 -27.800781 30.9375 -29.34375 C 31.875 -30.894531 33.15625 -32.117188 34.78125 -33.015625 C 36.40625 -33.921875 38.21875 -34.375 40.21875 -34.375 C 42.28125 -34.375 44.109375 -33.921875 45.703125 -33.015625 C 47.296875 -32.117188 48.554688 -30.894531 49.484375 -29.34375 C 50.421875 -27.800781 50.890625 -26.019531 50.890625 -24 L 50.890625 0 L 42.96875 0 L 42.96875 -24.625 C 42.96875 -25.132812 42.847656 -25.59375 42.609375 -26 C 42.367188 -26.40625 42.035156 -26.734375 41.609375 -26.984375 C 41.191406 -27.242188 40.726562 -27.375 40.21875 -27.375 C 39.738281 -27.375 39.28125 -27.242188 38.84375 -26.984375 C 38.40625 -26.734375 38.054688 -26.40625 37.796875 -26 C 37.546875 -25.59375 37.421875 -25.132812 37.421875 -24.625 L 37.421875 -9.84375 C 37.421875 -7.71875 36.9375 -5.882812 35.96875 -4.34375 C 35 -2.800781 33.707031 -1.59375 32.09375 -0.71875 C 30.488281 0.144531 28.707031 0.578125 26.75 0.578125 Z M 26.75 0.578125 "/></g></g></g><g fill="#5ce1e6" fill-opacity="1"><g transform="translate(176.167736, 55.806124)"><g><path d="M 2.796875 0 L 2.796875 -24.765625 L 10.328125 -24.765625 L 10.328125 0 Z M 6.5625 -27.578125 C 5.375 -27.578125 4.34375 -28.007812 3.46875 -28.875 C 2.601562 -29.738281 2.171875 -30.769531 2.171875 -31.96875 C 2.171875 -33.15625 2.601562 -34.191406 3.46875 -35.078125 C 4.34375 -35.960938 5.375 -36.40625 6.5625 -36.40625 C 7.757812 -36.40625 8.789062 -35.960938 9.65625 -35.078125 C 10.519531 -34.191406 10.953125 -33.15625 10.953125 -31.96875 C 10.953125 -30.769531 10.519531 -29.738281 9.65625 -28.875 C 8.789062 -28.007812 7.757812 -27.578125 6.5625 -27.578125 Z M 6.5625 -27.578125 "/></g></g></g><g fill="#5ce1e6" fill-opacity="1"><g transform="translate(189.203655, 55.806124)"><g><path d="M 2.796875 0 L 2.796875 -14.25 C 2.796875 -16.300781 3.296875 -18.164062 4.296875 -19.84375 C 5.296875 -21.519531 6.71875 -22.851562 8.5625 -23.84375 C 10.414062 -24.84375 12.613281 -25.34375 15.15625 -25.34375 C 17.726562 -25.34375 19.925781 -24.84375 21.75 -23.84375 C 23.570312 -22.851562 24.960938 -21.519531 25.921875 -19.84375 C 26.890625 -18.164062 27.375 -16.300781 27.375 -14.25 L 27.375 0 L 19.890625 0 L 19.890625 -14.046875 C 19.890625 -14.921875 19.679688 -15.71875 19.265625 -16.4375 C 18.847656 -17.164062 18.273438 -17.742188 17.546875 -18.171875 C 16.828125 -18.609375 16.015625 -18.828125 15.109375 -18.828125 C 14.179688 -18.828125 13.351562 -18.609375 12.625 -18.171875 C 11.90625 -17.742188 11.332031 -17.164062 10.90625 -16.4375 C 10.488281 -15.71875 10.28125 -14.921875 10.28125 -14.046875 L 10.28125 0 Z M 2.796875 0 "/></g></g></g><g fill="#5ce1e6" fill-opacity="1"><g transform="translate(219.379399, 55.806124)"><g><path d="M 11.875 0 C 9.59375 0 7.804688 -0.648438 6.515625 -1.953125 C 5.234375 -3.253906 4.59375 -5.015625 4.59375 -7.234375 L 4.59375 -30.796875 L 12.125 -30.796875 L 12.125 -7.671875 C 12.125 -7.285156 12.257812 -6.957031 12.53125 -6.6875 C 12.800781 -6.414062 13.128906 -6.28125 13.515625 -6.28125 L 18.921875 -6.28125 L 18.921875 0 Z M 0.53125 -18.640625 L 0.53125 -24.765625 L 18.921875 -24.765625 L 18.921875 -18.640625 Z M 0.53125 -18.640625 "/></g></g></g></g></g></g><path fill="#5ce1e6" d="M 68.359375 102.066406 C 63.941406 102.542969 59.628906 104.195312 55.929688 107.019531 L 44.878906 65.789062 C 43.328125 59.988281 44.984375 53.800781 49.230469 49.554688 L 92.710938 6.074219 C 96.957031 1.828125 103.144531 0.167969 108.945312 1.722656 L 148.652344 12.363281 C 145.960938 16.128906 144.445312 20.476562 144.109375 24.902344 L 111.140625 16.066406 C 106.441406 14.808594 101.425781 16.148438 97.984375 19.59375 L 62.753906 54.828125 C 59.3125 58.265625 57.964844 63.28125 59.226562 67.984375 Z M 172.359375 51.5 L 181.796875 86.726562 C 183.054688 91.425781 181.714844 96.441406 178.269531 99.882812 L 143.035156 135.113281 C 139.597656 138.554688 134.582031 139.898438 129.878906 138.640625 L 95.796875 129.507812 C 95.320312 133.925781 93.667969 138.238281 90.84375 141.9375 L 132.074219 152.984375 C 137.875 154.539062 144.0625 152.878906 148.308594 148.636719 L 191.789062 105.152344 C 196.035156 100.90625 197.695312 94.71875 196.140625 88.917969 L 184.679688 46.144531 C 181.046875 49.105469 176.769531 50.890625 172.359375 51.5 Z M 172.359375 51.5 " fill-opacity="1" fill-rule="nonzero"/><path fill="#5271ff" d="M 85.160156 112.707031 C 92.945312 120.492188 92.945312 133.160156 85.160156 140.945312 C 77.375 148.730469 64.707031 148.730469 56.921875 140.945312 C 49.136719 133.160156 49.136719 120.492188 56.921875 112.707031 C 64.707031 104.921875 77.375 104.921875 85.160156 112.707031 Z M 154.835938 12.734375 C 147.050781 20.519531 147.050781 33.183594 154.835938 40.96875 C 162.621094 48.753906 175.285156 48.753906 183.070312 40.96875 C 190.855469 33.183594 190.855469 20.519531 183.070312 12.734375 C 175.285156 4.949219 162.621094 4.949219 154.835938 12.734375 Z M 151.332031 44.46875 C 147.351562 40.488281 145.007812 35.484375 144.285156 30.296875 L 111.996094 21.644531 C 107.722656 20.5 103.164062 21.722656 100.035156 24.851562 L 68.007812 56.875 C 64.882812 60.003906 63.660156 64.5625 64.804688 68.835938 L 73.710938 102.066406 C 79.171875 102.652344 84.480469 105.027344 88.660156 109.207031 C 92.839844 113.386719 95.214844 118.691406 95.796875 124.15625 L 129.03125 133.0625 C 133.300781 134.207031 137.859375 132.984375 140.992188 129.859375 L 173.015625 97.832031 C 176.144531 94.703125 177.363281 90.144531 176.21875 85.871094 L 167.058594 51.675781 C 161.320312 51.242188 155.710938 48.84375 151.332031 44.46875 Z M 151.332031 44.46875 " fill-opacity="1" fill-rule="nonzero"/><g clip-path="url(#cc5a1f01b3)"><g clip-path="url(#bd99ab6e46)"><g transform="matrix(1, 0, 0, 1, 109, 52)"><g clip-path="url(#ca5541a63f)"><g clip-path="url(#d84ccd05f2)"><g clip-path="url(#e956601629)"><path fill="#f4f4f4" d="M 0.0664062 0.507812 L 17.277344 0.507812 L 17.277344 47.09375 L 0.0664062 47.09375 Z M 0.0664062 0.507812 " fill-opacity="1" fill-rule="nonzero"/></g></g></g></g></g></g><g clip-path="url(#9117644ec3)"><g clip-path="url(#849a5f6950)"><g transform="matrix(1, 0, 0, 1, 138, 53)"><g clip-path="url(#58b72f8efc)"><g clip-path="url(#efa67c1ae2)"><g clip-path="url(#60b958f7cf)"><path fill="#f4f4f4" d="M 0.964844 0.191406 L 18.175781 0.191406 L 18.175781 46.105469 L 0.964844 46.105469 Z M 0.964844 0.191406 " fill-opacity="1" fill-rule="nonzero"/></g></g></g></g></g></g><g clip-path="url(#16f5e545ea)"><g clip-path="url(#5425577726)"><g clip-path="url(#e36d05814e)"><g transform="matrix(1, 0, 0, 1, 109, 53)"><g clip-path="url(#ccf550c719)"><g clip-path="url(#6e93ad94e6)"><g clip-path="url(#ef31791a2c)"><g clip-path="url(#6b4c58cb27)"><path fill="#c1ff72" d="M 38.664062 -3.464844 L 50.835938 8.703125 L 8.90625 50.628906 L -3.261719 38.460938 Z M 38.664062 -3.464844 " fill-opacity="1" fill-rule="nonzero"/></g></g></g></g></g></g></g></g><g clip-path="url(#7294662add)"><g clip-path="url(#d045d1a142)"><g clip-path="url(#c697788ac0)"><g transform="matrix(1, 0, 0, 1, 139, 82)"><g clip-path="url(#2ce336bfaa)"><g clip-path="url(#0087f5f3b4)"><g clip-path="url(#b231cab75a)"><g clip-path="url(#4b22e9e99a)"><path fill="#c1ff72" d="M 8.667969 -2.695312 L 20.839844 9.476562 L 8.667969 21.644531 L -3.5 9.476562 Z M 8.667969 -2.695312 " fill-opacity="1" fill-rule="nonzero"/></g></g></g></g></g></g></g></g><g clip-path="url(#54dfabf006)"><g clip-path="url(#49c948cf3c)"><g clip-path="url(#d7a4727af7)"><g transform="matrix(1, 0, 0, 1, 78, 51)"><g clip-path="url(#aac7c68cce)"><g clip-path="url(#ec33673d52)"><g clip-path="url(#e83a6f2c01)"><g clip-path="url(#a7fd1834d4)"><path fill="#c1ff72" d="M 39.667969 -2.605469 L 51.835938 9.5625 L 8.769531 52.628906 L -3.398438 40.460938 Z M 39.667969 -2.605469 " fill-opacity="1" fill-rule="nonzero"/></g></g></g></g></g></g></g></g></g></g></svg>