<svg xmlns="http://www.w3.org/2000/svg" xmlns:xlink="http://www.w3.org/1999/xlink" width="500" zoomAndPan="magnify" viewBox="0 0 375 374.999991" height="500" preserveAspectRatio="xMidYMid meet" version="1.0"><defs><clipPath id="e77f9717ab"><path d="M 1 1 L 361.921875 1 L 361.921875 361.441406 L 1 361.441406 Z M 1 1" clip-rule="nonzero"></path></clipPath><clipPath id="04284083c7"><path d="M 154.785156 122.617188 L 195.40625 122.617188 L 195.40625 232.730469 L 154.785156 232.730469 Z M 154.785156 122.617188" clip-rule="nonzero"></path></clipPath><clipPath id="ec981aac3a"><path d="M 172.035156 122.617188 L 178.15625 122.617188 C 182.730469 122.617188 187.117188 124.433594 190.351562 127.667969 C 193.589844 130.902344 195.40625 135.292969 195.40625 139.867188 L 195.40625 215.371094 C 195.40625 219.945312 193.589844 224.332031 190.351562 227.566406 C 187.117188 230.804688 182.730469 232.621094 178.15625 232.621094 L 172.035156 232.621094 C 167.460938 232.621094 163.074219 230.804688 159.839844 227.566406 C 156.605469 224.332031 154.785156 219.945312 154.785156 215.371094 L 154.785156 139.867188 C 154.785156 135.292969 156.605469 130.902344 159.839844 127.667969 C 163.074219 124.433594 167.460938 122.617188 172.035156 122.617188 Z M 172.035156 122.617188" clip-rule="nonzero"></path></clipPath><clipPath id="e74582941d"><path d="M 0.785156 0.617188 L 41.40625 0.617188 L 41.40625 110.730469 L 0.785156 110.730469 Z M 0.785156 0.617188" clip-rule="nonzero"></path></clipPath><clipPath id="fa3e86c214"><path d="M 18.035156 0.617188 L 24.15625 0.617188 C 28.730469 0.617188 33.117188 2.433594 36.351562 5.667969 C 39.589844 8.902344 41.40625 13.292969 41.40625 17.867188 L 41.40625 93.371094 C 41.40625 97.945312 39.589844 102.332031 36.351562 105.566406 C 33.117188 108.804688 28.730469 110.621094 24.15625 110.621094 L 18.035156 110.621094 C 13.460938 110.621094 9.074219 108.804688 5.839844 105.566406 C 2.605469 102.332031 0.785156 97.945312 0.785156 93.371094 L 0.785156 17.867188 C 0.785156 13.292969 2.605469 8.902344 5.839844 5.667969 C 9.074219 2.433594 13.460938 0.617188 18.035156 0.617188 Z M 18.035156 0.617188" clip-rule="nonzero"></path></clipPath><clipPath id="1f9809e783"><rect x="0" width="42" y="0" height="111"></rect></clipPath><clipPath id="2cc3ce775a"><path d="M 225.355469 124.230469 L 265.972656 124.230469 L 265.972656 232.757812 L 225.355469 232.757812 Z M 225.355469 124.230469" clip-rule="nonzero"></path></clipPath><clipPath id="3a4a94c193"><path d="M 242.605469 124.230469 L 248.722656 124.230469 C 253.296875 124.230469 257.683594 126.046875 260.921875 129.285156 C 264.15625 132.519531 265.972656 136.90625 265.972656 141.480469 L 265.972656 215.371094 C 265.972656 219.945312 264.15625 224.332031 260.921875 227.566406 C 257.683594 230.804688 253.296875 232.621094 248.722656 232.621094 L 242.605469 232.621094 C 238.027344 232.621094 233.640625 230.804688 230.40625 227.566406 C 227.171875 224.332031 225.355469 219.945312 225.355469 215.371094 L 225.355469 141.480469 C 225.355469 136.90625 227.171875 132.519531 230.40625 129.285156 C 233.640625 126.046875 238.027344 124.230469 242.605469 124.230469 Z M 242.605469 124.230469" clip-rule="nonzero"></path></clipPath><clipPath id="931baed471"><path d="M 0.355469 0.230469 L 40.972656 0.230469 L 40.972656 108.757812 L 0.355469 108.757812 Z M 0.355469 0.230469" clip-rule="nonzero"></path></clipPath><clipPath id="5fe8f3a2d6"><path d="M 17.605469 0.230469 L 23.722656 0.230469 C 28.296875 0.230469 32.683594 2.046875 35.921875 5.285156 C 39.15625 8.519531 40.972656 12.90625 40.972656 17.480469 L 40.972656 91.371094 C 40.972656 95.945312 39.15625 100.332031 35.921875 103.566406 C 32.683594 106.804688 28.296875 108.621094 23.722656 108.621094 L 17.605469 108.621094 C 13.027344 108.621094 8.640625 106.804688 5.40625 103.566406 C 2.171875 100.332031 0.355469 95.945312 0.355469 91.371094 L 0.355469 17.480469 C 0.355469 12.90625 2.171875 8.519531 5.40625 5.285156 C 8.640625 2.046875 13.027344 0.230469 17.605469 0.230469 Z M 17.605469 0.230469" clip-rule="nonzero"></path></clipPath><clipPath id="707b04d200"><rect x="0" width="41" y="0" height="109"></rect></clipPath><clipPath id="96cfabcbb0"><path d="M 154 122 L 268 122 L 268 237 L 154 237 Z M 154 122" clip-rule="nonzero"></path></clipPath><clipPath id="34ea1c4f0a"><path d="M 245.886719 115.601562 L 274.609375 144.320312 L 175.539062 243.390625 L 146.816406 214.667969 Z M 245.886719 115.601562" clip-rule="nonzero"></path></clipPath><clipPath id="0fe322d10a"><path d="M 258.082031 127.796875 L 262.410156 132.125 C 265.644531 135.359375 267.460938 139.746094 267.460938 144.320312 C 267.460938 148.898438 265.644531 153.285156 262.410156 156.519531 L 187.808594 231.121094 C 184.570312 234.359375 180.183594 236.175781 175.609375 236.175781 C 171.035156 236.175781 166.648438 234.359375 163.410156 231.121094 L 159.085938 226.796875 C 155.851562 223.5625 154.03125 219.171875 154.03125 214.597656 C 154.03125 210.023438 155.851562 205.636719 159.085938 202.402344 L 233.6875 127.796875 C 236.921875 124.5625 241.3125 122.746094 245.886719 122.746094 C 250.460938 122.746094 254.847656 124.5625 258.082031 127.796875 Z M 258.082031 127.796875" clip-rule="nonzero"></path></clipPath><clipPath id="b98502851c"><path d="M 0 0.640625 L 113.601562 0.640625 L 113.601562 114.398438 L 0 114.398438 Z M 0 0.640625" clip-rule="nonzero"></path></clipPath><clipPath id="d03f671d2c"><path d="M 91.886719 -6.398438 L 120.609375 22.320312 L 21.539062 121.390625 L -7.183594 92.667969 Z M 91.886719 -6.398438" clip-rule="nonzero"></path></clipPath><clipPath id="756691b54a"><path d="M 104.082031 5.796875 L 108.410156 10.125 C 111.644531 13.359375 113.460938 17.746094 113.460938 22.320312 C 113.460938 26.898438 111.644531 31.285156 108.410156 34.519531 L 33.808594 109.121094 C 30.570312 112.359375 26.183594 114.175781 21.609375 114.175781 C 17.035156 114.175781 12.648438 112.359375 9.410156 109.121094 L 5.085938 104.796875 C 1.851562 101.5625 0.03125 97.171875 0.03125 92.597656 C 0.03125 88.023438 1.851562 83.636719 5.085938 80.402344 L 79.6875 5.796875 C 82.921875 2.5625 87.3125 0.746094 91.886719 0.746094 C 96.460938 0.746094 100.847656 2.5625 104.082031 5.796875 Z M 104.082031 5.796875" clip-rule="nonzero"></path></clipPath><clipPath id="7f904c921a"><rect x="0" width="114" y="0" height="115"></rect></clipPath><clipPath id="6b6fcc1e30"><path d="M 224 193 L 268 193 L 268 237 L 224 237 Z M 224 193" clip-rule="nonzero"></path></clipPath><clipPath id="b5652d8001"><path d="M 245.894531 185.867188 L 274.617188 214.589844 L 245.78125 243.425781 L 217.0625 214.703125 Z M 245.894531 185.867188" clip-rule="nonzero"></path></clipPath><clipPath id="424b0949a5"><path d="M 258.09375 198.066406 L 262.417969 202.390625 C 265.652344 205.628906 267.472656 210.015625 267.472656 214.589844 C 267.472656 219.164062 265.652344 223.550781 262.417969 226.789062 L 258.082031 231.125 C 254.84375 234.363281 250.457031 236.179688 245.882812 236.179688 C 241.308594 236.179688 236.921875 234.363281 233.683594 231.125 L 229.359375 226.800781 C 226.125 223.566406 224.304688 219.175781 224.304688 214.601562 C 224.304688 210.027344 226.125 205.640625 229.359375 202.40625 L 233.699219 198.066406 C 236.933594 194.832031 241.320312 193.011719 245.894531 193.011719 C 250.46875 193.011719 254.859375 194.832031 258.09375 198.066406 Z M 258.09375 198.066406" clip-rule="nonzero"></path></clipPath><clipPath id="29eea8c138"><path d="M 0.160156 0 L 43.601562 0 L 43.601562 43.398438 L 0.160156 43.398438 Z M 0.160156 0" clip-rule="nonzero"></path></clipPath><clipPath id="a7ba7568e9"><path d="M 21.894531 -7.132812 L 50.617188 21.589844 L 21.78125 50.425781 L -6.9375 21.703125 Z M 21.894531 -7.132812" clip-rule="nonzero"></path></clipPath><clipPath id="280619ce56"><path d="M 34.09375 5.066406 L 38.417969 9.390625 C 41.652344 12.628906 43.472656 17.015625 43.472656 21.589844 C 43.472656 26.164062 41.652344 30.550781 38.417969 33.789062 L 34.082031 38.125 C 30.84375 41.363281 26.457031 43.179688 21.882812 43.179688 C 17.308594 43.179688 12.921875 41.363281 9.683594 38.125 L 5.359375 33.800781 C 2.125 30.566406 0.304688 26.175781 0.304688 21.601562 C 0.304688 17.027344 2.125 12.640625 5.359375 9.40625 L 9.699219 5.066406 C 12.933594 1.832031 17.320312 0.0117188 21.894531 0.0117188 C 26.46875 0.0117188 30.859375 1.832031 34.09375 5.066406 Z M 34.09375 5.066406" clip-rule="nonzero"></path></clipPath><clipPath id="96454b5bac"><rect x="0" width="44" y="0" height="44"></rect></clipPath><clipPath id="d9d01d38bf"><path d="M 80 120 L 197 120 L 197 237 L 80 237 Z M 80 120" clip-rule="nonzero"></path></clipPath><clipPath id="634761bfd8"><path d="M 175.082031 112.910156 L 203.804688 141.628906 L 102.046875 243.390625 L 73.324219 214.667969 Z M 175.082031 112.910156" clip-rule="nonzero"></path></clipPath><clipPath id="b5662e60bb"><path d="M 187.28125 125.105469 L 191.609375 129.433594 C 194.84375 132.667969 196.660156 137.054688 196.660156 141.628906 C 196.660156 146.203125 194.84375 150.59375 191.609375 153.828125 L 114.3125 231.121094 C 111.078125 234.359375 106.691406 236.175781 102.113281 236.175781 C 97.539062 236.175781 93.152344 234.359375 89.917969 231.121094 L 85.589844 226.796875 C 82.355469 223.5625 80.539062 219.171875 80.539062 214.597656 C 80.539062 210.023438 82.355469 205.636719 85.589844 202.402344 L 162.886719 125.105469 C 166.121094 121.871094 170.507812 120.054688 175.082031 120.054688 C 179.660156 120.054688 184.046875 121.871094 187.28125 125.105469 Z M 187.28125 125.105469" clip-rule="nonzero"></path></clipPath><clipPath id="291c73fd4b"><path d="M 0.398438 0 L 116.800781 0 L 116.800781 116.398438 L 0.398438 116.398438 Z M 0.398438 0" clip-rule="nonzero"></path></clipPath><clipPath id="9f795598eb"><path d="M 95.082031 -7.089844 L 123.804688 21.628906 L 22.046875 123.390625 L -6.675781 94.667969 Z M 95.082031 -7.089844" clip-rule="nonzero"></path></clipPath><clipPath id="8643444542"><path d="M 107.28125 5.105469 L 111.609375 9.433594 C 114.84375 12.667969 116.660156 17.054688 116.660156 21.628906 C 116.660156 26.203125 114.84375 30.59375 111.609375 33.828125 L 34.3125 111.121094 C 31.078125 114.359375 26.691406 116.175781 22.113281 116.175781 C 17.539062 116.175781 13.152344 114.359375 9.917969 111.121094 L 5.589844 106.796875 C 2.355469 103.5625 0.539062 99.171875 0.539062 94.597656 C 0.539062 90.023438 2.355469 85.636719 5.589844 82.402344 L 82.886719 5.105469 C 86.121094 1.871094 90.507812 0.0546875 95.082031 0.0546875 C 99.660156 0.0546875 104.046875 1.871094 107.28125 5.105469 Z M 107.28125 5.105469" clip-rule="nonzero"></path></clipPath><clipPath id="21e52d2d04"><rect x="0" width="117" y="0" height="117"></rect></clipPath><clipPath id="10ca0d4d61"><rect x="0" width="362" y="0" height="362"></rect></clipPath></defs><g transform="matrix(1, 0, 0, 1, 6, 6)"><g clip-path="url(#10ca0d4d61)"><g clip-path="url(#e77f9717ab)"><path fill="#5ce1e6" d="M 58.710938 239.589844 C 48.28125 240.707031 38.101562 244.609375 29.371094 251.28125 L 3.292969 153.964844 C -0.375 140.277344 3.539062 125.667969 13.5625 115.648438 L 116.179688 13.023438 C 126.199219 3 140.808594 -0.914062 154.5 2.75 L 248.210938 27.863281 C 241.867188 36.753906 238.289062 47.015625 237.488281 57.460938 L 159.683594 36.609375 C 148.589844 33.636719 136.75 36.808594 128.628906 44.933594 L 45.472656 128.089844 C 37.355469 136.210938 34.175781 148.050781 37.148438 159.144531 Z M 304.164062 120.234375 L 326.441406 203.378906 C 329.414062 214.46875 326.246094 226.308594 318.117188 234.429688 L 234.960938 317.585938 C 226.84375 325.707031 215.003906 328.882812 203.910156 325.910156 L 123.460938 304.351562 C 122.34375 314.78125 118.445312 324.957031 111.773438 333.691406 L 209.085938 359.769531 C 222.773438 363.4375 237.382812 359.519531 247.40625 349.5 L 350.03125 246.871094 C 360.050781 236.851562 363.96875 222.242188 360.300781 208.554688 L 333.25 107.597656 C 324.675781 114.589844 314.578125 118.800781 304.164062 120.234375 Z M 304.164062 120.234375" fill-opacity="1" fill-rule="nonzero"></path></g><path fill="#5271ff" d="M 98.355469 264.703125 C 116.730469 283.078125 116.730469 312.976562 98.355469 331.351562 C 79.980469 349.726562 50.085938 349.726562 31.710938 331.351562 C 13.335938 312.976562 13.335938 283.078125 31.710938 264.703125 C 50.085938 246.328125 79.980469 246.328125 98.355469 264.703125 Z M 262.804688 28.742188 C 244.433594 47.113281 244.433594 77.011719 262.804688 95.386719 C 281.179688 113.761719 311.078125 113.761719 329.453125 95.386719 C 347.828125 77.011719 347.828125 47.113281 329.453125 28.742188 C 311.078125 10.367188 281.179688 10.367188 262.804688 28.742188 Z M 254.542969 103.640625 C 245.148438 94.246094 239.609375 82.4375 237.910156 70.199219 L 161.695312 49.777344 C 151.617188 47.078125 140.855469 49.960938 133.46875 57.339844 L 57.878906 132.929688 C 50.5 140.308594 47.617188 151.070312 50.316406 161.15625 L 71.332031 239.589844 C 84.230469 240.972656 96.757812 246.578125 106.617188 256.441406 C 116.480469 266.304688 122.089844 278.832031 123.46875 291.726562 L 201.902344 312.742188 C 211.984375 315.445312 222.746094 312.5625 230.132812 305.179688 L 305.71875 229.59375 C 313.101562 222.210938 315.984375 211.453125 313.28125 201.363281 L 291.65625 120.660156 C 278.117188 119.632812 264.875 113.972656 254.542969 103.640625 Z M 254.542969 103.640625" fill-opacity="1" fill-rule="nonzero"></path><g clip-path="url(#04284083c7)"><g clip-path="url(#ec981aac3a)"><g transform="matrix(1, 0, 0, 1, 154, 122)"><g clip-path="url(#1f9809e783)"><g clip-path="url(#e74582941d)"><g clip-path="url(#fa3e86c214)"><path fill="#f4f4f4" d="M 0.785156 0.617188 L 41.40625 0.617188 L 41.40625 110.574219 L 0.785156 110.574219 Z M 0.785156 0.617188" fill-opacity="1" fill-rule="nonzero"></path></g></g></g></g></g></g><g clip-path="url(#2cc3ce775a)"><g clip-path="url(#3a4a94c193)"><g transform="matrix(1, 0, 0, 1, 225, 124)"><g clip-path="url(#707b04d200)"><g clip-path="url(#931baed471)"><g clip-path="url(#5fe8f3a2d6)"><path fill="#f4f4f4" d="M 0.355469 0.230469 L 40.972656 0.230469 L 40.972656 108.601562 L 0.355469 108.601562 Z M 0.355469 0.230469" fill-opacity="1" fill-rule="nonzero"></path></g></g></g></g></g></g><g clip-path="url(#96cfabcbb0)"><g clip-path="url(#34ea1c4f0a)"><g clip-path="url(#0fe322d10a)"><g transform="matrix(1, 0, 0, 1, 154, 122)"><g clip-path="url(#7f904c921a)"><g clip-path="url(#b98502851c)"><g clip-path="url(#d03f671d2c)"><g clip-path="url(#756691b54a)"><path fill="#c1ff72" d="M 91.886719 -6.398438 L 120.609375 22.320312 L 21.652344 121.277344 L -7.070312 92.554688 Z M 91.886719 -6.398438" fill-opacity="1" fill-rule="nonzero"></path></g></g></g></g></g></g></g></g><g clip-path="url(#6b6fcc1e30)"><g clip-path="url(#b5652d8001)"><g clip-path="url(#424b0949a5)"><g transform="matrix(1, 0, 0, 1, 224, 193)"><g clip-path="url(#96454b5bac)"><g clip-path="url(#29eea8c138)"><g clip-path="url(#a7ba7568e9)"><g clip-path="url(#280619ce56)"><path fill="#c1ff72" d="M 21.894531 -7.132812 L 50.617188 21.589844 L 21.894531 50.3125 L -6.828125 21.589844 Z M 21.894531 -7.132812" fill-opacity="1" fill-rule="nonzero"></path></g></g></g></g></g></g></g></g><g clip-path="url(#d9d01d38bf)"><g clip-path="url(#634761bfd8)"><g clip-path="url(#b5662e60bb)"><g transform="matrix(1, 0, 0, 1, 80, 120)"><g clip-path="url(#21e52d2d04)"><g clip-path="url(#291c73fd4b)"><g clip-path="url(#9f795598eb)"><g clip-path="url(#8643444542)"><path fill="#c1ff72" d="M 95.082031 -7.089844 L 123.804688 21.628906 L 22.15625 123.277344 L -6.566406 94.554688 Z M 95.082031 -7.089844" fill-opacity="1" fill-rule="nonzero"></path></g></g></g></g></g></g></g></g></g></g></svg>
